<mxfile host="app.diagrams.net" modified="2024-07-07T05:57:02.530Z" agent="Mozilla/5.0 (Windows NT 10.0; Win64; x64) AppleWebKit/537.36 (KHTML, like Gecko) Chrome/126.0.0.0 Safari/537.36 Edg/126.0.0.0" etag="XCoqvrfIve_AvcbWICOA" version="24.0.4" type="github">
  <diagram name="第 1 页" id="T3_I8XwFVwvv7itEy3XH">
    <mxGraphModel dx="1349" dy="777" grid="1" gridSize="10" guides="1" tooltips="1" connect="1" arrows="1" fold="1" page="1" pageScale="1" pageWidth="827" pageHeight="1169" math="0" shadow="0">
      <root>
        <mxCell id="0" />
        <mxCell id="1" parent="0" />
        <mxCell id="-9T8MAA02rSjERp2O7SW-1" value="" style="ellipse;whiteSpace=wrap;html=1;aspect=fixed;" vertex="1" parent="1">
          <mxGeometry x="140" y="110" width="60" height="60" as="geometry" />
        </mxCell>
        <mxCell id="-9T8MAA02rSjERp2O7SW-2" value="" style="ellipse;whiteSpace=wrap;html=1;aspect=fixed;" vertex="1" parent="1">
          <mxGeometry x="140" y="200" width="60" height="60" as="geometry" />
        </mxCell>
        <mxCell id="-9T8MAA02rSjERp2O7SW-3" value="" style="ellipse;whiteSpace=wrap;html=1;aspect=fixed;" vertex="1" parent="1">
          <mxGeometry x="140" y="290" width="60" height="60" as="geometry" />
        </mxCell>
        <mxCell id="-9T8MAA02rSjERp2O7SW-4" value="" style="ellipse;whiteSpace=wrap;html=1;aspect=fixed;" vertex="1" parent="1">
          <mxGeometry x="140" y="380" width="60" height="60" as="geometry" />
        </mxCell>
        <mxCell id="-9T8MAA02rSjERp2O7SW-5" value="" style="ellipse;whiteSpace=wrap;html=1;aspect=fixed;" vertex="1" parent="1">
          <mxGeometry x="140" y="470" width="60" height="60" as="geometry" />
        </mxCell>
        <mxCell id="-9T8MAA02rSjERp2O7SW-6" value="" style="ellipse;whiteSpace=wrap;html=1;aspect=fixed;" vertex="1" parent="1">
          <mxGeometry x="280" y="160" width="60" height="60" as="geometry" />
        </mxCell>
        <mxCell id="-9T8MAA02rSjERp2O7SW-7" value="" style="ellipse;whiteSpace=wrap;html=1;aspect=fixed;" vertex="1" parent="1">
          <mxGeometry x="280" y="290" width="60" height="60" as="geometry" />
        </mxCell>
        <mxCell id="-9T8MAA02rSjERp2O7SW-8" value="" style="ellipse;whiteSpace=wrap;html=1;aspect=fixed;" vertex="1" parent="1">
          <mxGeometry x="280" y="420" width="60" height="60" as="geometry" />
        </mxCell>
        <mxCell id="-9T8MAA02rSjERp2O7SW-9" value="" style="ellipse;whiteSpace=wrap;html=1;aspect=fixed;" vertex="1" parent="1">
          <mxGeometry x="420" y="290" width="60" height="60" as="geometry" />
        </mxCell>
        <mxCell id="-9T8MAA02rSjERp2O7SW-10" value="" style="endArrow=classic;html=1;rounded=0;" edge="1" parent="1">
          <mxGeometry width="50" height="50" relative="1" as="geometry">
            <mxPoint x="390" y="420" as="sourcePoint" />
            <mxPoint x="440" y="370" as="targetPoint" />
          </mxGeometry>
        </mxCell>
      </root>
    </mxGraphModel>
  </diagram>
</mxfile>
